<?xml version="1.0" encoding="UTF-8"?>
<svg version="1.1" xmlns="http://www.w3.org/2000/svg" width="614" height="160">
<path d="M0 0 C0.87333984 -0.03738281 1.74667969 -0.07476562 2.64648438 -0.11328125 C8.0958312 -0.1865361 11.80355174 0.63138772 16.43676758 3.51318359 C22.17698985 9.21081929 23.88487878 14.36778206 23.99014282 22.40454102 C23.98002167 23.56010498 23.96990051 24.71566895 23.95947266 25.90625 C23.96823425 27.1430249 23.97699585 28.3797998 23.98602295 29.65405273 C24.00418758 33.02645404 24.00003296 36.39730998 23.98412752 39.7696228 C23.97140402 43.3106279 23.98322643 46.85157024 23.99105835 50.39257812 C24.0001363 56.33735914 23.98821616 62.28182883 23.96435547 68.2265625 C23.93714732 75.08416952 23.94596283 81.94103311 23.9734875 88.79862213 C23.99623089 94.70295797 23.99935329 100.60707094 23.98629415 106.51143646 C23.97852814 110.03061597 23.97737857 113.54944687 23.99397659 117.06860352 C24.0111996 120.9939427 23.98728031 124.9184597 23.95947266 128.84375 C23.97465439 130.57709595 23.97465439 130.57709595 23.99014282 132.34545898 C23.89904338 139.30077095 22.90486645 144.02101929 18.3125 149.375 C12.6225864 154.6584912 7.8850739 154.58276941 0.5 154.625 C-0.83514648 154.6559375 -0.83514648 154.6559375 -2.19726562 154.6875 C-8.40407797 154.72430838 -12.81186644 154.02757603 -17.55078125 149.65625 C-18.02902344 149.0684375 -18.50726563 148.480625 -19 147.875 C-19.49113281 147.2871875 -19.98226562 146.699375 -20.48828125 146.09375 C-22.54090083 143.1518848 -22.68273285 141.27099633 -22.51831055 137.68383789 C-21.87869551 122.2298043 -28.65003736 112.92802024 -37.5 100.8125 C-38.79483805 98.98251635 -40.08587812 97.14983927 -41.37304688 95.31445312 C-43.89589561 91.72512798 -46.43773131 88.15058419 -48.99462891 84.58544922 C-54.42184176 76.98071374 -59.55931261 69.18313681 -64.6875 61.375 C-64.6968457 62.31819092 -64.70619141 63.26138184 -64.71582031 64.2331543 C-64.7599431 67.74675542 -64.82160205 71.25915253 -64.89501953 74.7722168 C-64.9231717 76.29000685 -64.9444149 77.80794193 -64.95849609 79.32592773 C-64.98000723 81.51361021 -65.02669228 83.69955965 -65.078125 85.88671875 C-65.1095459 87.85838013 -65.1095459 87.85838013 -65.14160156 89.86987305 C-65.76612899 93.87986425 -66.85540461 95.52744845 -69.6875 98.375 C-73.77905788 100.7617421 -78.05830721 100.92839496 -82.6875 100.375 C-86.74558412 99.17753256 -88.97133395 98.43515132 -91.36181641 94.89648438 C-93.12176583 90.2214364 -93.11813226 86.110719 -93.0859375 81.15625 C-93.08880768 80.18014771 -93.09167786 79.20404541 -93.09463501 78.19836426 C-93.09667055 76.14086322 -93.09117647 74.0833426 -93.07861328 72.02587891 C-93.06255267 68.88529997 -93.07847964 65.7460079 -93.09765625 62.60546875 C-93.09567373 60.60155967 -93.09182987 58.59765139 -93.0859375 56.59375 C-93.09201019 55.65921997 -93.09808289 54.72468994 -93.1043396 53.76184082 C-93.03897966 47.67188147 -92.31790471 43.09155333 -87.8984375 38.52734375 C-84.93523207 36.98291689 -82.64373132 36.94138255 -79.3125 36.9375 C-78.21164063 36.91816406 -77.11078125 36.89882813 -75.9765625 36.87890625 C-71.86924274 37.49841885 -69.9602124 38.82033901 -66.6875 41.375 C-65.03860687 43.65568859 -63.63242728 45.81740531 -62.2421875 48.2421875 C-61.37707715 49.68549531 -60.50802703 51.12644654 -59.63574219 52.56542969 C-59.16680542 53.34011597 -58.69786865 54.11480225 -58.21472168 54.91296387 C-55.43201869 59.39896311 -52.4658956 63.76128141 -49.5078125 68.1328125 C-48.88203308 69.05922546 -48.25625366 69.98563843 -47.61151123 70.94012451 C-45.68076298 73.79495059 -43.74674653 76.6475433 -41.8125 79.5 C-40.49452967 81.44773941 -39.17681986 83.39565513 -37.859375 85.34375 C-36.00906413 88.07965321 -34.15840067 90.81530921 -32.30569458 93.54959106 C-31.75767181 94.35838715 -31.20964905 95.16718323 -30.64501953 96.00048828 C-30.16888214 96.70279572 -29.69274475 97.40510315 -29.20217896 98.12869263 C-27.35340766 100.87046743 -25.52001021 103.62233729 -23.6875 106.375 C-23.68385437 105.2254332 -23.68020874 104.07586639 -23.67645264 102.89146423 C-23.63948052 92.0476772 -23.58168335 81.20417356 -23.50359726 70.36060238 C-23.46412066 64.78604406 -23.43193293 59.21164375 -23.41650391 53.63696289 C-23.40133875 48.25512174 -23.36689512 42.87371498 -23.31919098 37.49206734 C-23.30437584 35.44086041 -23.29645891 33.38959147 -23.29561615 31.33833122 C-23.29324519 28.46068103 -23.26615467 25.58423005 -23.23339844 22.70678711 C-23.24094398 21.44010948 -23.24094398 21.44010948 -23.24864197 20.14784241 C-23.13596342 13.73238372 -21.51512529 9.45842513 -17.08984375 4.6328125 C-11.34946734 0.19358808 -6.98289523 0.11091964 0 0 Z " fill="#7C0416" transform="translate(325.6875,3.625)"/>
<path d="M0 0 C6.88875 -0.061875 13.7775 -0.12375 20.875 -0.1875 C23.0288623 -0.21481201 25.18272461 -0.24212402 27.40185547 -0.27026367 C29.14029381 -0.27903887 30.87873839 -0.28668035 32.6171875 -0.29296875 C33.4944751 -0.30831665 34.3717627 -0.32366455 35.27563477 -0.33947754 C44.12152058 -0.34315617 52.40131457 1.49614352 59.3671875 7.20703125 C62.84106791 11.02165112 63.90178845 15.29471818 64.0859375 20.3671875 C63.75644486 25.51767774 62.41333232 29.001525 59 33 C56.75 34.375 56.75 34.375 55 35 C55 35.66 55 36.32 55 37 C55.53625 37.061875 56.0725 37.12375 56.625 37.1875 C60.81703596 38.62161757 64.14072219 41.31047403 66.15625 45.2734375 C67.89704429 50.898782 68.07850844 57.62456009 66.27734375 63.26171875 C62.91666782 69.53407342 58.12240673 72.27727564 51.62258911 74.37368774 C46.90625405 75.50001685 42.22702073 75.36614267 37.40234375 75.29296875 C36.44815552 75.28994751 35.49396729 75.28692627 34.51086426 75.28381348 C30.98629762 75.26825588 27.4618866 75.22637318 23.9375 75.1875 C16.038125 75.125625 8.13875 75.06375 0 75 C0 50.25 0 25.5 0 0 Z M14 11 C14 17.93 14 24.86 14 32 C18.16737178 32.10839984 22.3318954 32.18752306 26.5 32.25 C28.25957031 32.30027344 28.25957031 32.30027344 30.0546875 32.3515625 C37.17930676 32.4316144 42.04044217 32.0581751 48 28 C50.08184278 24.55377597 50.49331502 22.02873935 50 18 C47.78385573 14.51748757 45.83852081 12.47603612 42 11 C38.90079282 10.72479244 38.90079282 10.72479244 35.484375 10.8046875 C34.23398437 10.81113281 32.98359375 10.81757812 31.6953125 10.82421875 C30.39335938 10.84097656 29.09140625 10.85773437 27.75 10.875 C25.77386719 10.88853516 25.77386719 10.88853516 23.7578125 10.90234375 C20.50513084 10.92591391 17.25254256 10.96178475 14 11 Z M14 43 C14 50.26 14 57.52 14 65 C18.50036622 65.08122319 22.99925368 65.14061723 27.5 65.1875 C28.7684375 65.21263672 30.036875 65.23777344 31.34375 65.26367188 C42.19398088 65.45204756 42.19398088 65.45204756 51.64648438 60.63354492 C53.97730161 57.82050414 54.21976621 54.52291891 54 51 C52.35976582 47.59335978 51.17974552 45.61934343 47.8059082 43.84814453 C44.3364051 42.79941454 41.35472933 42.77485819 37.73046875 42.8046875 C37.04946609 42.8075174 36.36846344 42.81034729 35.66682434 42.81326294 C33.50686545 42.82439475 31.34733206 42.84948543 29.1875 42.875 C27.71680289 42.88503889 26.24609924 42.89416315 24.77539062 42.90234375 C21.18330075 42.9226037 17.59212268 42.96176333 14 43 Z " fill="#750415" transform="translate(12,53)"/>
<path d="M0 0 C6.22875 -0.061875 12.4575 -0.12375 18.875 -0.1875 C21.79255127 -0.22846802 21.79255127 -0.22846802 24.76904297 -0.27026367 C37.21433626 -0.37336822 48.29626708 0.25324272 58 9 C63.426473 15.6438679 64.46140202 23.04983649 63.8125 31.41796875 C62.72696044 37.98774463 59.43787577 43.12158986 54.34375 47.38671875 C50.60263158 50 50.60263158 50 48 50 C48.37286133 50.54414551 48.74572266 51.08829102 49.12988281 51.64892578 C50.83697455 54.14068632 52.54349157 56.63283994 54.25 59.125 C54.83652344 59.9809375 55.42304688 60.836875 56.02734375 61.71875 C59.04594207 66.12793855 62.04944984 70.5449614 65 75 C52.04890388 76.51770658 52.04890388 76.51770658 47.46875 73.125 C45.41358031 70.51526071 43.70062812 67.85241716 42 65 C40.6751643 63.16051658 39.34218503 61.32686295 38 59.5 C35 55.26785714 35 55.26785714 35 53 C28.07 53 21.14 53 14 53 C14 60.26 14 67.52 14 75 C9.38 75 4.76 75 0 75 C0 50.25 0 25.5 0 0 Z M14 11 C14 21.23 14 31.46 14 42 C17.465 42.061875 20.93 42.12375 24.5 42.1875 C25.57572266 42.21481201 26.65144531 42.24212402 27.75976562 42.27026367 C34.14913272 42.3250802 40.56148248 42.1310736 45.55639648 37.58276367 C49.66716788 32.87176297 50.41606195 29.13691381 50 23 C48.25980376 18.32894693 46.23701227 15.63636319 42 13 C35.72182335 11.03502129 30.04404956 10.75232621 23.5 10.875 C18.7975 10.936875 18.7975 10.936875 14 11 Z " fill="#770415" transform="translate(103,53)"/>
<path d="M0 0 C4.62 0 9.24 0 14 0 C19.55537311 10.92845191 24.81517177 21.95927397 29.875 33.125 C30.57139573 34.65691917 31.26801283 36.18873772 31.96484375 37.72045898 C33.00420617 40.00566794 34.04317854 42.29104919 35.08074951 44.57707214 C37.12772051 49.08695871 39.18696891 53.59086771 41.2578125 58.08984375 C41.96381592 59.62777588 41.96381592 59.62777588 42.68408203 61.19677734 C43.53919644 63.05899125 44.39680558 64.92006234 45.25732422 66.77978516 C45.62615723 67.58593262 45.99499023 68.39208008 46.375 69.22265625 C46.69210937 69.91109619 47.00921875 70.59953613 47.3359375 71.30883789 C48 73 48 73 48 75 C43.38 75 38.76 75 34 75 C31.69 69.72 29.38 64.44 27 59 C7.2 58.505 7.2 58.505 -13 58 C-13.99 60.97 -14.98 63.94 -16 67 C-17.22121073 69.74874522 -18.59542017 72.3361417 -20 75 C-24.29 75 -28.58 75 -33 75 C-31.08155073 68.96295302 -28.89246132 63.26367772 -26.19140625 57.5390625 C-25.82811722 56.75820786 -25.46482819 55.97735321 -25.0905304 55.1728363 C-24.31699478 53.5110198 -23.54139158 51.85016434 -22.76385498 50.19021606 C-20.73199833 45.85165552 -18.71584062 41.50581407 -16.69921875 37.16015625 C-16.29805847 36.2964592 -15.89689819 35.43276215 -15.48358154 34.54289246 C-10.17503046 23.09401983 -5.07534843 11.55388142 0 0 Z M7 14 C3.32787202 21.0938836 -0.09866488 28.27866196 -3.375 35.5625 C-3.73271484 36.34802246 -4.09042969 37.13354492 -4.45898438 37.94287109 C-4.78962891 38.6848877 -5.12027344 39.4269043 -5.4609375 40.19140625 C-5.75790527 40.85342041 -6.05487305 41.51543457 -6.36083984 42.19750977 C-7.16710434 44.1525065 -7.16710434 44.1525065 -7 47 C2.57 47 12.14 47 22 47 C20.55013786 42.65041359 19.04188687 38.66804514 17.1796875 34.5078125 C16.64472656 33.30898437 16.10976563 32.11015625 15.55859375 30.875 C14.99745717 29.62497246 14.43625849 28.3749728 13.875 27.125 C13.30573112 25.85167802 12.73671824 24.57824156 12.16796875 23.3046875 C10.78115731 20.20199072 9.39175486 17.10048172 8 14 C7.67 14 7.34 14 7 14 Z " fill="#730414" transform="translate(394,53)"/>
<path d="M0 0 C4.95 0 9.9 0 15 0 C17.59706893 5.86705327 20.19304936 11.73458659 22.78808594 17.60253906 C23.66833145 19.59257548 24.548858 21.58248762 25.4296875 23.57226562 C30.35017732 34.68809944 35.25312468 45.80870721 40 57 C45.59723497 45.12435498 51.0023212 33.16612668 56.375 21.1875 C57.60125342 18.45551136 58.82781929 15.72366373 60.05484009 12.99201965 C60.81101528 11.30839558 61.5667112 9.62455616 62.3218689 7.94047546 C62.65957306 7.18821182 62.99727722 6.43594818 63.34521484 5.66088867 C63.78986588 4.66952156 63.78986588 4.66952156 64.24349976 3.65812683 C64.80495971 2.42749693 65.39507236 1.20985527 66 0 C70.62 0 75.24 0 80 0 C75.78241138 11.44406668 70.81404585 22.47364462 65.75 33.5625 C64.93324006 35.35726096 64.11683211 37.15218214 63.30078125 38.94726562 C62.08505318 41.62130303 60.86903235 44.29520277 59.65148926 46.96841431 C55.40311779 56.29824069 51.19907888 65.64790734 47 75 C42.38 75 37.76 75 33 75 C28.66515938 66.51738778 24.73196304 57.94975423 21 49.1875 C17.42160408 40.83190886 13.8001672 32.49962434 10.04296875 24.22265625 C9.71918243 23.50929611 9.39539612 22.79593597 9.0617981 22.06095886 C7.48702408 18.59653035 5.90566193 15.13521822 4.31835938 11.67651367 C3.747357 10.42498516 3.17639147 9.17343985 2.60546875 7.921875 C2.10168701 6.82456055 1.59790527 5.72724609 1.07885742 4.59667969 C0 2 0 2 0 0 Z " fill="#770415" transform="translate(444,53)"/>
<path d="M0 0 C4.62 0 9.24 0 14 0 C19.3838881 10.42539858 24.04517053 21.10439671 28.6875 31.875 C29.82761588 34.51506498 30.96873062 37.15468723 32.11177063 39.79348755 C32.81704537 41.42214998 33.52059206 43.05156223 34.22209167 44.68185425 C36.02751576 48.8561446 37.91994429 52.95251971 40 57 C42.43642959 51.59686136 44.87167233 46.19318982 47.3059082 40.7890625 C48.13079295 38.95819338 48.95597847 37.12745973 49.78149414 35.296875 C50.98146254 32.63579007 52.18049497 29.97428652 53.37890625 27.3125 C53.77099274 26.44181885 54.16307922 25.5711377 54.56704712 24.67407227 C57.39768819 18.37448591 60.18007273 12.05499053 62.90345764 5.70825195 C64.89293199 1.10706801 64.89293199 1.10706801 66 0 C68.18639453 -0.07258946 70.37500389 -0.08373783 72.5625 -0.0625 C74.35880859 -0.04896484 74.35880859 -0.04896484 76.19140625 -0.03515625 C77.11824219 -0.02355469 78.04507813 -0.01195312 79 0 C78.33253854 4.80253853 76.43027637 8.82378883 74.421875 13.18359375 C74.0584903 13.98414688 73.69510559 14.78470001 73.32070923 15.60951233 C72.53993448 17.32871728 71.75691187 19.04690281 70.97186279 20.76416016 C68.91541563 25.26350507 66.87583471 29.77047688 64.8359375 34.27734375 C64.42634796 35.18144989 64.01675842 36.08555603 63.59475708 37.01705933 C59.77010667 45.47495491 56.0495044 53.97596117 52.375 62.5 C52.09587769 63.1470993 51.81675537 63.79419861 51.5291748 64.46090698 C50.0153672 67.97220302 48.50688051 71.48572036 47 75 C42.05 75 37.1 75 32 75 C31.52804199 73.92032959 31.05608398 72.84065918 30.56982422 71.72827148 C28.34053551 66.63033116 26.10795211 61.53383655 23.875 56.4375 C23.47138245 55.5157196 23.06776489 54.59393921 22.6519165 53.64422607 C18.38292643 43.89897681 14.0992982 34.1620642 9.6875 24.48046875 C9.35920197 23.75925339 9.03090393 23.03803802 8.69265747 22.29496765 C7.15876717 18.92897504 5.61746286 15.56663026 4.06591797 12.20874023 C3.52596191 11.02868408 2.98600586 9.84862793 2.4296875 8.6328125 C1.95772949 7.61074707 1.48577148 6.58868164 0.99951172 5.53564453 C0 3 0 3 0 0 Z " fill="#770415" transform="translate(532,53)"/>
<path d="M0 0 C4.29 0 8.58 0 13 0 C13 24.75 13 49.5 13 75 C8.71 75 4.42 75 0 75 C0 50.25 0 25.5 0 0 Z " fill="#750415" transform="translate(193,53)"/>
<path d="M0 0 C1.94971596 1.94971596 2.72412888 3.29607645 3.875 5.75 C6.25591357 10.6180389 8.40723829 14.93815886 13 18 C13 18.66 13 19.32 13 20 C14.175625 20.0928125 14.175625 20.0928125 15.375 20.1875 C16.24125 20.455625 17.1075 20.72375 18 21 C19.0625 23.3125 19.0625 23.3125 20 26 C21.31054623 27.35573748 22.64748503 28.68612831 24 30 C28.76857721 35.9398067 28.76857721 35.9398067 29.45703125 39.09375 C29.8897538 41.39469537 29.8897538 41.39469537 33 43 C33.495 44.7634375 33.495 44.7634375 34 46.5625 C34.495 48.2640625 34.495 48.2640625 35 50 C35.99 50.33 36.98 50.66 38 51 C38.87890625 52.890625 38.87890625 52.890625 39.5625 55.25 C40.35548354 57.89327846 41.14695614 60.33799912 42.25 62.875 C43 65 43 65 42 68 C38.10545856 62.24406019 34.21381968 56.48616538 30.32397461 50.72705078 C29.00689704 48.77773122 27.68921188 46.82882201 26.37084961 44.88037109 C22.53241236 39.2069236 18.70687574 33.52513431 14.89801025 27.83178711 C13.62220566 25.92831636 12.34247464 24.02747201 11.059021 22.12915039 C9.20913895 19.39028596 7.37441059 16.64184282 5.54296875 13.890625 C4.98209061 13.06657166 4.42121246 12.24251831 3.84333801 11.39349365 C3.33582504 10.62458801 2.82831207 9.85568237 2.30541992 9.06347656 C1.63466682 8.06311371 1.63466682 8.06311371 0.95036316 7.0425415 C-0.20173766 4.56642096 -0.17318374 2.69956089 0 0 Z " fill="#55020F" transform="translate(260,58)"/>
<path d="M0 0 C3.82153422 4.570786 7.09826834 9.46443607 10.41796875 14.40234375 C11.0346492 15.31649551 11.65132965 16.23064728 12.28669739 17.17250061 C13.59134051 19.10754574 14.8949209 21.04330776 16.19750977 22.97973633 C18.16082828 25.89785726 20.12798111 28.81336276 22.09570312 31.72851562 C25.74605902 37.1419863 29.37895149 42.56688818 33 48 C33.75364838 49.12791962 33.75364838 49.12791962 34.52252197 50.27862549 C35.83176418 52.2443312 37.13102488 54.21613949 38.42578125 56.19140625 C39.12743408 57.25689697 39.82908691 58.3223877 40.55200195 59.42016602 C42 62 42 62 42 65 C40 65 40 65 38.4375 63.6875 C37 62 37 62 36 59 C35.34 58.360625 34.68 57.72125 34 57.0625 C31.86969613 54.86562413 31.66795783 53.86267643 31 51 C30.01 50.34 29.02 49.68 28 49 C27.24865397 47.30130463 26.50233624 45.59959061 25.8125 43.875 C24.16388286 40.07049891 22.15020232 36.85443601 18.8125 34.375 C16.57486198 32.6774815 16.58380798 31.66883649 16 29 C15.01979625 27.9805881 14.02196992 26.97753644 13 26 C13 25.34 13 24.68 13 24 C12.01 23.67 11.02 23.34 10 23 C5.74442037 17.52177054 2.36497327 11.82486633 1 5 C0.01 5.33 -0.98 5.66 -2 6 C-1.34 4.02 -0.68 2.04 0 0 Z " fill="#A1061D" transform="translate(261,50)"/>
<path d="M0 0 C0.99 0.33 1.98 0.66 3 1 C3.67441131 2.6635479 4.3400321 4.33066942 5 6 C6.31054623 7.35573748 7.64748503 8.68612831 9 10 C13.76857721 15.9398067 13.76857721 15.9398067 14.45703125 19.09375 C14.8897538 21.39469537 14.8897538 21.39469537 18 23 C18.33 24.175625 18.66 25.35125 19 26.5625 C19.33 27.696875 19.66 28.83125 20 30 C20.99 30.33 21.98 30.66 23 31 C23 31.99 23 32.98 23 34 C22.34 34 21.68 34 21 34 C21 33.34 21 32.68 21 32 C20.01 31.67 19.02 31.34 18 31 C16.61328125 29.44140625 16.61328125 29.44140625 15.3125 27.5625 C14.87550781 26.94503906 14.43851562 26.32757813 13.98828125 25.69140625 C13 24 13 24 13 22 C12.34 22 11.68 22 11 22 C10.9175 20.9275 10.835 19.855 10.75 18.75 C9.91226798 14.56133988 9.19270032 13.6605836 6 11 C1.98876201 7.45518503 0.37741434 5.40960555 0 0 Z " fill="#7A0416" transform="translate(275,78)"/>
<path d="M0 0 C1.8125 0.5625 1.8125 0.5625 4 2 C4.74622677 3.71956603 5.48699532 5.44286473 6.15234375 7.1953125 C7.49313587 10.04990216 9.70967038 11.8814451 12 14 C15.00420229 17.33800254 15.91750915 20.67003658 17 25 C13.57960999 22.71973999 13.87593753 22.6132423 13 19 C12.01979625 17.9805881 11.02196992 16.97753644 10 16 C10 15.34 10 14.68 10 14 C9.01 13.67 8.02 13.34 7 13 C5.17578125 10.56640625 5.17578125 10.56640625 3.3125 7.5625 C2.68988281 6.57378906 2.06726563 5.58507812 1.42578125 4.56640625 C0 2 0 2 0 0 Z " fill="#8D0519" transform="translate(264,60)"/>
<path d="M0 0 C4.875 4.625 4.875 4.625 6 8 C6.99 8.33 7.98 8.66 9 9 C9 9.99 9 10.98 9 12 C8.34 12 7.68 12 7 12 C7 11.34 7 10.68 7 10 C6.01 9.67 5.02 9.34 4 9 C2.00603743 6.33916031 0 3.38757675 0 0 Z " fill="#670412" transform="translate(277,84)"/>
</svg>
